<svg width="131" height="129" viewBox="0 0 131 129" fill="none" xmlns="http://www.w3.org/2000/svg">
<path d="M18.4224 73.2483C14.1615 73.0898 12.9835 69.1214 11.8543 65.1122C10.8754 61.5743 9.94926 57.7846 6.02952 57.6424C3.72641 57.5571 2.26818 58.9544 2.191 61.0869C2.08946 63.8571 4.29101 65.4738 5.57864 66.4202C6.65911 67.2285 7.5243 68.0287 7.4715 69.4788C7.41869 70.8842 6.41134 71.6154 4.23415 71.5788C2.4266 68.5243 1.24458 64.767 1.3705 61.3144C1.56953 55.9851 4.42912 52.5081 9.49839 52.695L17.2567 52.9834C20.7093 53.1093 21.9116 52.9427 24.3244 52.2644L24.1091 58.1014C22.1391 58.2842 19.8319 58.3288 17.6182 58.2435C22.6306 60.0511 24.625 63.8368 24.5031 67.1188C24.3772 70.4862 22.0944 73.3904 18.4305 73.2523L18.4224 73.2483ZM21.6598 64.1942C21.7573 61.5499 19.4866 58.3085 13.8609 58.1014L9.34404 57.9348C10.8469 58.8447 11.3344 60.6116 12.1508 62.8619C13.3653 65.7662 14.527 67.8134 17.2973 67.919C20.1081 68.0246 21.5826 66.2415 21.6598 64.1983V64.1942Z" fill="#1E1E1E"/>
<path d="M20.8864 45.9926L7.9776 38.9289L6.36096 41.886L5.49983 41.4148L5.74761 40.964C7.56735 37.6332 5.20331 36.0937 0 33.2504L2.57932 28.5345C5.94665 30.3786 8.62751 33.2991 7.32364 38.08L13.1565 27.4175L14.0177 27.8887L10.5366 34.2496L22.962 41.0452C25.5454 42.4588 27.6901 42.2678 28.6284 40.5497C29.7942 38.4172 28.4212 35.8663 24.7208 33.2098L25.0498 32.6127C30.2775 36.2968 31.9835 40.1963 29.9404 43.9414C28.0963 47.3087 24.6721 48.0601 20.8945 45.9926H20.8864Z" fill="#1E1E1E"/>
<path d="M30.367 29.6354L24.9972 21.5278C23.7502 19.6431 22.8078 18.3758 21.6055 17.0232L26.6544 13.6802C27.4303 15.3131 28.2305 16.6779 29.4775 18.5626L34.8676 26.7068C36.6346 29.3754 38.5599 30.0416 40.4446 28.7946C42.1872 27.641 43.1052 25.2445 42.9468 22.5352L42.898 22.4661L37.0123 13.5746C35.7653 11.6899 34.8229 10.4225 33.6206 9.06993L38.633 5.75134C39.4088 7.38423 40.209 8.74904 41.456 10.6338L47.3418 19.5253C48.5888 21.41 49.5311 22.6773 50.7335 24.03L45.7211 27.3486C45.124 26.0569 44.4862 24.9439 43.6739 23.64C43.7348 27.1292 42.1506 30.529 39.4129 32.3447C36.2852 34.4163 32.9504 33.5552 30.363 29.6435L30.367 29.6354Z" fill="#1E1E1E"/>
<path d="M52.7607 12.0189C52.5251 5.41418 57.0785 0.255551 64.1097 0.00777407C67.6923 -0.118145 71.283 1.28728 73.7283 4.10218C73.4927 5.86099 72.7087 6.65713 71.4739 6.70181C69.8979 6.75868 69.2155 5.62946 68.659 4.32559C67.5948 2.01436 66.0553 0.747043 63.9675 0.824219C60.9414 0.933891 58.1549 4.23217 58.3539 9.8173C58.5977 16.6819 62.4077 20.6423 66.758 20.4879C70.296 20.362 73.2693 17.5674 74.232 13.4365L74.8778 13.5827C73.6714 19.2612 69.6258 23.116 64.3818 23.3029C57.5619 23.5466 52.976 18.2458 52.7566 12.0229L52.7607 12.0189Z" fill="#1E1E1E"/>
<path d="M78.2655 18.0019C80.3249 14.265 84.399 15.0042 88.4893 15.7963C92.0882 16.5112 95.8901 17.3886 97.783 13.9522C98.896 11.9334 98.3029 10.004 96.4344 8.97229C94.0054 7.63592 91.5723 8.8748 90.1507 9.59782C88.9443 10.199 87.8394 10.6133 86.568 9.91059C85.3373 9.23225 85.1383 8.00149 86.1497 6.07614C89.6917 5.83649 93.5789 6.47015 96.605 8.13554C101.272 10.7067 103.096 14.8296 100.647 19.2733L96.9016 26.073C95.2362 29.0991 94.8462 30.2486 94.3629 32.7101L89.2448 29.8912C89.9679 28.0511 90.9671 25.9714 92.0394 24.0298C88.1725 27.6937 83.8912 27.7708 81.0154 26.1867C78.0665 24.5619 76.4986 21.2149 78.2695 18.0019H78.2655ZM84.8986 24.9681C87.2139 26.2436 91.1296 25.6749 93.847 20.7437L96.0282 16.7834C94.5416 17.7176 92.7422 17.3561 90.3659 17.0717C87.2261 16.8524 84.8742 16.9661 83.5338 19.3952C82.1771 21.8607 83.1032 23.977 84.8945 24.9641L84.8986 24.9681Z" fill="#1E1E1E"/>
<path d="M108.605 44.9409L117.111 40.1438C119.934 38.5515 120.681 36.6627 119.568 34.6927C118.541 32.873 116.193 31.7478 113.443 31.7316L113.406 31.7519L104.121 36.9917C102.151 38.1006 100.819 38.9537 99.3847 40.0544L96.4316 34.8146C98.1173 34.1565 99.5349 33.4579 101.501 32.3449L110.786 27.105C112.756 25.9961 114.089 25.1431 115.523 24.0424L118.476 29.2822C117.143 29.79 115.99 30.3424 114.556 31.102C118.078 31.2685 121.416 33.1086 123.029 35.9681C124.873 39.238 123.776 42.4997 119.727 44.7825L111.221 49.5796C109.251 50.6885 107.919 51.5415 106.485 52.6423L103.532 47.4024C105.218 46.7444 106.635 46.0458 108.605 44.9328V44.9409Z" fill="#1E1E1E"/>
<path d="M112.257 54.7663C116.518 54.9165 117.7 58.885 118.841 62.8941C119.824 66.428 120.758 70.2178 124.678 70.3559C126.981 70.4371 128.44 69.0398 128.513 66.9073C128.61 64.1371 126.404 62.5205 125.117 61.5821C124.036 60.7738 123.167 59.9777 123.22 58.5276C123.269 57.1222 124.276 56.387 126.453 56.4235C128.265 59.474 129.455 63.2313 129.333 66.6839C129.146 72.0131 126.291 75.4942 121.217 75.3155L113.459 75.0393C110.007 74.9174 108.804 75.088 106.391 75.7704L106.599 69.9294C108.569 69.7425 110.876 69.6979 113.09 69.775C108.073 67.9756 106.075 64.194 106.192 60.9119C106.31 57.5446 108.593 54.6403 112.257 54.7703V54.7663ZM109.036 63.8284C108.942 66.4686 111.217 69.71 116.843 69.9091L121.36 70.0675C119.857 69.1617 119.365 67.3948 118.549 65.1445C117.33 62.2402 116.164 60.193 113.394 60.0955C110.579 59.9939 109.109 61.7771 109.036 63.8243V63.8284Z" fill="#1E1E1E"/>
<path d="M109.835 82.0256L122.755 89.0649L124.368 86.1078L125.229 86.5749L124.985 87.0258C123.17 90.3607 125.538 91.892 130.745 94.7313L128.174 99.4512C124.803 97.6152 122.122 94.6947 123.413 89.9138L117.597 100.589L116.736 100.117L120.205 93.7523L107.771 86.9771C105.188 85.5676 103.043 85.7585 102.105 87.4848C100.943 89.6173 102.32 92.1682 106.024 94.8166L105.699 95.4177C100.468 91.7417 98.7536 87.8423 100.793 84.1012C102.629 80.7298 106.053 79.9743 109.835 82.0337V82.0256Z" fill="#1E1E1E"/>
<path d="M100.382 98.3995L105.764 106.499C107.015 108.38 107.957 109.647 109.164 111L104.119 114.351C103.343 112.718 102.539 111.357 101.288 109.472L95.8854 101.336C94.1144 98.6716 92.189 98.0055 90.3043 99.2566C88.5617 100.414 87.6478 102.811 87.8103 105.52L87.859 105.593L93.7569 114.477C95.008 116.361 95.9504 117.629 97.1568 118.977L92.1484 122.304C91.3685 120.671 90.5683 119.31 89.3173 117.426L83.4194 108.542C82.1683 106.657 81.2259 105.394 80.0195 104.042L85.0279 100.715C85.629 102.006 86.2668 103.119 87.0791 104.419C87.0142 100.93 88.5942 97.5262 91.3279 95.7105C94.4556 93.6349 97.7904 94.4919 100.382 98.3995Z" fill="#1E1E1E"/>
<path d="M78.0061 116.053C78.2498 122.658 73.7045 127.82 66.6734 128.08C63.0948 128.214 59.5 126.809 57.0466 123.998C57.2822 122.239 58.0621 121.443 59.2969 121.398C60.873 121.341 61.5554 122.467 62.1159 123.77C63.1842 126.078 64.7237 127.345 66.8115 127.268C69.8376 127.154 72.616 123.852 72.4129 118.267C72.161 111.406 68.3428 107.45 63.9925 107.608C60.4546 107.738 57.4853 110.537 56.5267 114.672L55.8809 114.526C57.0791 108.847 61.1207 104.984 66.3606 104.789C73.1806 104.537 77.7746 109.83 78.0021 116.053H78.0061Z" fill="#1E1E1E"/>
<path d="M52.511 110.115C50.4597 113.852 46.3815 113.124 42.2912 112.336C38.6923 111.626 34.8904 110.752 33.0016 114.193C31.8927 116.211 32.4857 118.141 34.3542 119.169C36.7832 120.501 39.2163 119.262 40.638 118.531C41.8444 117.93 42.9492 117.511 44.2206 118.21C45.4554 118.888 45.6545 120.115 44.6471 122.044C41.1051 122.288 37.2179 121.663 34.1877 120.001C29.5165 117.434 27.6886 113.319 30.1298 108.868L33.8668 102.064C35.5281 99.0337 35.9181 97.8882 36.3933 95.4226L41.5154 98.2335C40.7964 100.078 39.8012 102.157 38.733 104.099C42.5958 100.431 46.873 100.346 49.7529 101.926C52.7059 103.546 54.2779 106.889 52.511 110.106V110.115ZM45.8697 103.161C43.5504 101.889 39.6347 102.462 36.9254 107.397L34.7482 111.362C36.2349 110.427 38.0343 110.781 40.4105 111.065C43.5504 111.28 45.9063 111.163 47.2386 108.734C48.5912 106.268 47.6611 104.148 45.8697 103.165V103.161Z" fill="#1E1E1E"/>
<path d="M22.1166 83.2164L13.619 88.0257C10.8001 89.622 10.0567 91.5148 11.1697 93.4808C12.1974 95.3006 14.5492 96.4216 17.2991 96.4298L17.3357 96.4095L26.6131 91.1574C28.5791 90.0444 29.9114 89.1914 31.3452 88.0866L34.3064 93.3183C32.6207 93.9764 31.2071 94.6831 29.2371 95.7961L19.9597 101.048C17.9937 102.161 16.6614 103.014 15.2275 104.119L12.2664 98.8872C13.5947 98.3795 14.7523 97.823 16.1821 97.0634C12.6604 96.9009 9.31746 95.069 7.70082 92.2094C5.85265 88.9437 6.9453 85.6779 10.991 83.387L19.4885 78.5776C21.4545 77.4647 22.7868 76.6117 24.2206 75.5068L27.1818 80.7386C25.4961 81.3966 24.0825 82.0993 22.1166 83.2164Z" fill="#1E1E1E"/>
<path d="M93.1093 59.466C92.3741 58.2434 91.2774 57.4432 89.941 57.1548C89.5917 57.0776 89.2262 57.037 88.8484 57.037C89.019 56.9111 89.2058 56.7811 89.413 56.647C90.4732 55.9606 91.578 55.8428 92.3173 55.8631C92.6178 55.8631 92.89 55.7575 93.0728 55.5666C93.1784 55.465 93.2596 55.3432 93.3246 55.1766C93.3409 55.136 93.3531 55.0913 93.3612 55.0507H93.4302L93.3693 55.0141C93.4343 54.6445 93.2921 54.2546 92.9915 54.019C92.0654 53.2878 90.1441 52.2886 87.2561 53.2756C87.4917 52.8898 87.6704 52.4551 87.6704 51.9718C87.6704 51.0863 87.0693 50.3592 86.5778 49.7621C86.2853 49.4128 85.9522 49.0147 85.8791 48.7019C85.8019 48.3729 85.9197 47.8327 86.0132 47.3899C86.1797 46.6182 86.3625 45.7448 85.9726 44.9771C85.5948 44.2176 84.7905 43.852 84.0797 43.5311C83.5923 43.3118 83.1414 43.0965 82.9342 42.8406C82.7393 42.5969 82.6296 42.0729 82.5321 41.622C82.3818 40.8543 82.2072 39.9891 81.541 39.4123C80.9155 38.8721 80.0625 38.8233 79.3191 38.7787L79.2216 38.7705C78.7383 38.738 78.2387 38.7015 77.9584 38.5309C77.6862 38.3684 77.41 37.8932 77.1744 37.487C76.7845 36.8249 76.3377 36.0734 75.5619 35.7485C74.8023 35.4276 73.9493 35.6388 73.2547 35.8135C72.751 35.9353 72.227 36.0612 71.898 35.9719C71.5852 35.8866 71.1912 35.5129 70.846 35.1839L70.8054 35.1473C70.2611 34.6314 69.6437 34.0506 68.8272 33.9531C68.0392 33.8516 67.2999 34.2537 66.646 34.6111C66.1829 34.867 65.7036 35.1311 65.3583 35.1311C65.0131 35.1311 64.5744 34.8873 64.1194 34.6396L64.0788 34.6193C63.4289 34.2618 62.6937 33.8556 61.8895 33.9531C61.0568 34.0587 60.4312 34.6518 59.8747 35.1757C59.5498 35.4926 59.1395 35.8825 58.8268 35.9678C58.5018 36.0531 57.9778 35.9272 57.5188 35.8216L57.462 35.8094C56.7349 35.6307 55.9103 35.4316 55.1629 35.7444C54.3952 36.0612 53.9606 36.7924 53.5585 37.4667L53.5138 37.5438C53.2823 37.9338 53.0182 38.3765 52.7623 38.5309C52.4536 38.7177 51.8768 38.7502 51.4097 38.7746C50.6583 38.8233 49.8012 38.8802 49.1797 39.4083C48.5298 39.9647 48.3511 40.8259 48.1927 41.5895L48.1845 41.6301C48.0911 42.081 47.9815 42.5969 47.7905 42.8365C47.5834 43.0924 47.1244 43.3036 46.6735 43.5149L46.6166 43.5392C45.918 43.8601 45.13 44.2257 44.7522 44.9731C44.3582 45.7448 44.5451 46.6141 44.7116 47.3777C44.8091 47.8164 44.9269 48.3648 44.8457 48.6979C44.7685 49.0106 44.4232 49.429 44.1389 49.7743C43.6555 50.3551 43.0584 51.0822 43.0543 51.9758C43.0543 52.4551 43.2331 52.8857 43.4687 53.2756C40.5806 52.2886 38.6594 53.2878 37.7373 54.019C37.4286 54.2586 37.2864 54.6445 37.3555 55.0182L37.2986 55.0507H37.3636C37.3717 55.0994 37.388 55.1401 37.4002 55.1847C37.5545 55.6153 37.9607 55.8956 38.4116 55.8712C39.1549 55.8509 40.2598 55.9687 41.3118 56.6511C41.5189 56.7892 41.7058 56.9192 41.8764 57.0451C41.4946 57.0451 41.129 57.0898 40.7837 57.167C39.4433 57.4554 38.3466 58.2555 37.6154 59.4782C35.9216 62.3053 38.0013 65.1324 38.9762 66.2169C39.2768 66.554 39.7317 66.6597 40.1663 66.4931C40.5847 66.3225 40.8406 65.9204 40.8162 65.4695C40.7675 64.1738 41.0031 63.2152 41.5068 62.6952C41.8236 62.3703 42.2176 62.22 42.7456 62.22C43.6027 62.22 44.2892 62.4962 44.9634 63.1136C45.6012 63.6945 46.1577 64.5109 46.8035 65.4614C47.2259 66.091 47.7459 66.8506 48.3633 67.598C48.1074 67.6548 47.8474 67.6873 47.5874 67.6954C46.2592 67.7279 45.1869 67.0983 44.5329 66.5662C44.2323 66.3144 43.8058 66.3063 43.493 66.55C43.1762 66.7978 43.0747 67.2283 43.2493 67.602C44.8538 70.9287 47.9327 73.175 51.2919 73.4634C52.9126 73.6055 54.4805 73.2928 55.9591 72.5413C61.8407 76.7007 61.9219 91.019 61.9219 91.1611V91.1936L61.9463 91.3439C62.32 93.0012 63.7742 94.1629 65.4842 94.1629C66.4591 94.1629 67.369 93.7851 68.0554 93.1027C68.5429 92.6194 68.8841 92.006 69.0384 91.3114L69.0466 91.2424C69.0587 91.1002 70.6997 76.6317 74.4895 72.7363C74.5179 72.72 74.5464 72.6916 74.5951 72.6388L74.6845 72.5494C76.1549 73.2928 77.7187 73.6015 79.3354 73.4593C81.4963 73.2725 83.5963 72.261 85.2455 70.6119C86.1147 69.7426 86.8337 68.7272 87.378 67.5939C87.5567 67.2161 87.4551 66.7856 87.1424 66.55C86.8377 66.2981 86.395 66.3022 86.0985 66.55C85.4364 67.0821 84.3681 67.7117 83.0358 67.6873C82.7961 67.6792 82.5687 67.6548 82.3371 67.6061C82.9099 66.9237 83.3932 66.221 83.9172 65.4411C85.1967 63.5645 86.1228 62.2078 87.9751 62.2078C88.5072 62.2078 88.9093 62.3621 89.214 62.683C89.7176 63.203 89.9532 64.1616 89.8964 65.4573C89.8801 65.9163 90.132 66.3063 90.5585 66.4809C90.9525 66.6393 91.4033 66.5459 91.708 66.2413C91.712 66.2372 91.7283 66.2169 91.7405 66.2007C92.7153 65.1202 94.795 62.2972 93.1012 59.466H93.1093ZM45.2925 50.7126C45.7068 50.2048 46.1373 49.6768 46.2998 49.0391C46.4582 48.3851 46.312 47.7189 46.1739 47.0731C46.0602 46.545 45.9342 45.9479 46.0845 45.6392C46.2389 45.3387 46.7669 45.1031 47.295 44.8594C47.8718 44.5953 48.5258 44.2947 48.9604 43.7504C49.3788 43.2346 49.5169 42.5644 49.6509 41.9226L49.6671 41.8495C49.7728 41.3295 49.8946 40.7406 50.1586 40.5172C50.4064 40.3059 50.971 40.2734 51.5275 40.241C52.2221 40.1963 52.937 40.1516 53.5422 39.782C54.1393 39.4204 54.513 38.7827 54.8542 38.1978C55.1223 37.7429 55.4269 37.227 55.7438 37.093C56.0403 36.967 56.609 37.1092 57.1126 37.2311L57.1614 37.028H57.1858L57.137 37.2392C57.7869 37.3935 58.5221 37.5723 59.2167 37.3854C59.8991 37.2026 60.4637 36.6665 60.9146 36.2359C61.3208 35.85 61.7392 35.452 62.0844 35.4073C62.4094 35.3707 62.9171 35.6469 63.3842 35.9069C64.0057 36.2481 64.6475 36.6015 65.3664 36.6015C66.0854 36.6015 66.7678 36.2318 67.369 35.8988C67.8402 35.6388 68.3357 35.3707 68.6485 35.4113C68.9978 35.452 69.4162 35.85 69.8264 36.2359C70.3301 36.7152 70.846 37.2108 71.5203 37.3854C72.2189 37.5682 72.9541 37.3935 73.6081 37.2392C74.1158 37.1133 74.6885 36.967 74.9973 37.1052C75.3181 37.2351 75.6269 37.7551 75.899 38.2222C76.228 38.7827 76.5977 39.4204 77.1948 39.782C77.8081 40.1516 78.523 40.1963 79.2176 40.241H79.2623C79.7944 40.2775 80.3427 40.3141 80.5783 40.5212C80.8464 40.7487 80.9683 41.3499 81.0739 41.8495L81.082 41.9104C81.2079 42.5278 81.3542 43.2265 81.7725 43.7464C82.1909 44.2744 82.8083 44.5588 83.4014 44.835L83.5192 44.8878C84.0025 45.1153 84.5021 45.3468 84.6443 45.623C84.7946 45.9276 84.6768 46.4882 84.559 47.0609C84.429 47.6377 84.2665 48.3567 84.4331 49.0269C84.5874 49.6768 85.018 50.1967 85.4364 50.7004C85.8223 51.1634 86.1838 51.6062 86.1838 51.9555C86.1838 52.3048 85.8304 52.7313 85.4323 53.2106C85.0667 53.6575 84.689 54.1205 84.494 54.677C84.23 54.8557 83.9944 55.0263 83.7751 55.1969C80.5093 57.7031 79.0267 58.9339 78.3565 59.5269C78.259 59.6122 78.1209 59.6122 78.0274 59.531C77.2557 58.8526 74.6642 56.513 73.7706 54.9167C73.5878 54.5876 73.2384 54.3764 72.8485 54.3724C72.4707 54.3724 72.1255 54.5755 71.9427 54.9004C70.9394 56.6389 66.3251 60.7171 65.3624 60.7171C64.3997 60.7171 59.7894 56.6389 58.7821 54.8963C58.5912 54.5755 58.2418 54.3764 57.8722 54.3764C57.5026 54.3764 57.1492 54.5795 56.9502 54.9167C56.0972 56.4521 53.6884 58.6617 52.7014 59.531C52.5999 59.6163 52.4617 59.6122 52.3643 59.5269C51.7225 58.9542 50.2602 57.7397 46.9538 55.201C46.7223 55.0223 46.4785 54.8476 46.2348 54.6851C46.0439 54.149 45.6783 53.6818 45.2762 53.1985C44.9025 52.7395 44.5451 52.3048 44.5451 51.9596C44.5451 51.6143 44.8985 51.1838 45.2884 50.7044L45.2925 50.7126ZM48.083 64.6734L48.0302 64.5962C46.7344 62.6952 45.39 60.7252 42.7497 60.7252H42.705C41.8277 60.7252 41.0559 61.0298 40.471 61.6148L40.4344 61.6554C39.8495 62.2687 39.4839 63.1745 39.3702 64.2997C38.5944 63.1583 38.0379 61.6635 38.8949 60.2256C39.4189 59.3563 40.1623 58.808 41.1046 58.6049C42.4654 58.3043 44.1308 58.747 45.6783 59.8113C48.1602 61.5132 49.6022 63.4589 50.9995 65.3395L51.032 65.3802C51.954 66.615 52.8273 67.7929 53.9281 68.8247C52.5552 68.9831 51.3366 68.5281 50.3008 67.5045C49.4072 66.6272 48.7329 65.632 48.0789 64.6734H48.083ZM51.43 71.9726C49.3138 71.7899 47.3234 70.6931 45.8611 68.9262C46.4176 69.0887 47.0107 69.174 47.624 69.174C48.4689 69.174 49.2082 68.9628 49.5697 68.8409C51.8403 70.8353 54.3221 70.3641 55.4148 70.0067C55.7275 70.2138 56.0403 70.4007 56.3571 70.5713C54.8298 71.6558 53.1685 72.1311 51.4341 71.9767L51.43 71.9726ZM71.9427 72.8094C69.075 74.5845 65.927 74.6332 63.8067 74.3651C63.6076 74.3286 63.4045 74.3814 63.2502 74.5032C63.0877 74.621 62.9821 74.8038 62.9618 74.9947C62.909 75.4009 63.1974 75.7787 63.6036 75.8315C65.6427 76.0914 68.6038 76.0874 71.4918 74.7347C71.3334 75.0759 71.175 75.4334 71.0206 75.8111L70.9719 75.8477C70.6713 76.1158 70.3382 76.3595 69.9767 76.5667C68.1732 77.6146 66.191 77.6431 64.8465 77.4806C64.4403 77.4319 64.0666 77.7243 64.022 78.1264C63.9935 78.3214 64.0463 78.5205 64.1723 78.6748C64.2941 78.8332 64.4728 78.9348 64.6719 78.9591C66.1179 79.1297 68.2057 79.1094 70.1961 78.1305C70.1108 78.3986 70.0173 78.6951 69.9199 79.0363L69.8995 79.0566C69.6883 79.276 69.4446 79.4791 69.1887 79.6497C67.9295 80.5027 66.5363 80.523 65.5899 80.3889C65.1918 80.3361 64.8181 80.6164 64.7531 81.0307C64.7044 81.441 64.9887 81.8065 65.3908 81.8593C66.4063 82.0015 67.8686 81.9975 69.3187 81.2785C69.2334 81.6238 69.1522 81.9731 69.0709 82.3387C68.9206 82.4971 68.7582 82.6352 68.5876 82.7611C67.6411 83.4476 66.6135 83.4597 65.9067 83.3501C65.5086 83.3013 65.1349 83.5857 65.074 83.9715C65.0374 84.1665 65.0862 84.3655 65.208 84.5321C65.3258 84.6905 65.4964 84.792 65.7036 84.8286C66.455 84.9383 67.5315 84.9464 68.62 84.4508C68.5388 84.857 68.4698 85.2348 68.4129 85.5476C68.3113 85.6654 68.2057 85.7669 68.0961 85.8563C67.4421 86.3884 66.7231 86.4006 66.2398 86.3193C66.0448 86.2828 65.8458 86.3315 65.6833 86.4452C65.5249 86.559 65.4152 86.7296 65.3827 86.9245C65.3502 87.1236 65.3949 87.3226 65.5127 87.481C65.6264 87.6435 65.797 87.7532 65.996 87.7857C66.5241 87.871 67.2796 87.8913 68.0676 87.5745C68.0189 87.875 67.9742 88.1634 67.9376 88.4275C67.9376 88.4315 67.9295 88.4356 67.9255 88.4396C67.8239 88.5737 67.7345 88.6752 67.6452 88.7565C67.2959 89.0733 66.8937 89.183 66.4144 89.0977C66.0164 89.0286 65.6305 89.2926 65.5533 89.6988C65.5208 89.8898 65.5614 90.0847 65.6752 90.2594C65.7889 90.4219 65.9595 90.5315 66.1463 90.564C66.6622 90.6575 67.1781 90.6209 67.6493 90.4544C67.6168 90.7184 67.5924 90.9174 67.5843 91.0271C67.3365 91.9979 66.4835 92.6722 65.4964 92.6722C64.5094 92.6722 63.6564 92.006 63.4208 91.0677C63.4127 89.4389 63.173 76.5545 57.3117 71.7046C57.5107 71.5624 57.7057 71.4121 57.8925 71.2537C59.8869 71.9767 62.3322 72.2976 65.3461 72.2367C68.3438 72.3017 70.7769 71.9848 72.7673 71.274C72.9704 71.4405 73.1735 71.5989 73.3765 71.7411C72.9257 72.1392 72.4423 72.4966 71.9386 72.8094H71.9427ZM74.0752 69.0359C73.3847 69.4461 72.6332 69.7751 71.7843 70.0351C72.1986 68.7759 72.5195 67.5248 72.7388 66.3144C72.7835 66.091 72.8241 65.8676 72.8607 65.6482C72.9216 65.242 72.6454 64.8643 72.2473 64.8034C72.0524 64.7709 71.8533 64.8155 71.6827 64.9374C71.5284 65.0511 71.4228 65.2217 71.3903 65.4208C71.37 65.5467 71.3497 65.6767 71.3253 65.8026L71.2847 66.0422C71.0125 67.5289 70.6063 69.0074 70.0783 70.4454C69.3268 70.5753 68.5347 70.6647 67.7183 70.7134C67.9905 69.3568 68.1773 68.0082 68.2748 66.6962L68.3073 66.3185C68.3195 66.1194 68.2545 65.9285 68.1245 65.7782C67.9945 65.6279 67.8117 65.5386 67.6208 65.5264C67.4218 65.5101 67.2309 65.5711 67.0765 65.7051C66.9262 65.8351 66.8287 66.026 66.8166 66.225C66.8084 66.3388 66.8044 66.4606 66.7922 66.5784C66.6825 67.9879 66.4794 69.3974 66.1991 70.7541C65.8864 70.7541 65.6142 70.7541 65.334 70.7419C65.1512 70.75 64.9724 70.7541 64.7897 70.7541C64.5053 69.3974 64.3022 67.992 64.1885 66.5784C64.1804 66.4687 64.1723 66.3672 64.1601 66.2494V66.2372C64.1519 66.0301 64.0626 65.8432 63.9123 65.7132C63.7742 65.5914 63.5995 65.5223 63.433 65.5223C63.4127 65.5223 63.3924 65.5223 63.3721 65.5223C63.173 65.5345 62.9943 65.6239 62.8643 65.7742C62.7343 65.9244 62.6693 66.1154 62.6815 66.3144L62.6896 66.4606C62.6896 66.5378 62.7018 66.615 62.7059 66.6881C62.8115 68.0285 62.9984 69.3811 63.2664 70.7175C62.4297 70.6769 61.6457 70.5997 60.9308 70.49C60.3906 69.0277 59.9763 67.5289 59.7041 66.0301C59.6757 65.896 59.6554 65.7701 59.631 65.636L59.5945 65.4208C59.566 65.2177 59.4604 65.039 59.2898 64.9171C59.1314 64.8074 58.9405 64.7627 58.7374 64.7912C58.3312 64.8602 58.0631 65.2339 58.1241 65.6482L58.185 66.0179C58.2012 66.1154 58.2175 66.2088 58.2337 66.3022C58.4693 67.5573 58.8024 68.8368 59.2248 70.1163C58.4125 69.8889 57.6813 69.5964 57.007 69.2268C56.9827 69.1537 56.9502 69.0887 56.9055 69.0237C56.2068 68.0773 55.6382 67.0902 55.2076 66.0829C54.8177 65.1689 54.5333 64.2306 54.3546 63.3004C54.3221 63.1095 54.2124 62.9389 54.0378 62.8171C53.8712 62.7033 53.6722 62.6668 53.4853 62.7074C53.0792 62.7846 52.8151 63.1664 52.8923 63.5807C53.0873 64.5759 53.3797 65.5548 53.7656 66.4809C53.2132 65.827 52.7014 65.1364 52.2018 64.4622C50.8004 62.5734 49.2122 60.4327 46.5151 58.5764C45.7718 58.0728 45.0163 57.6869 44.2729 57.435C44.0536 56.8623 43.3306 56.1799 42.1201 55.396C41.3646 54.9004 40.5928 54.6364 39.9307 54.4983C41.2671 54.0921 43.2696 54.2586 46.0317 56.3749C49.3422 58.9176 50.7598 60.0956 51.3691 60.6399C52.0231 61.2167 53.0101 61.2207 53.6641 60.648C54.7973 59.6528 56.7917 57.8047 57.8803 56.2083C59.2451 57.9672 63.5142 62.1997 65.3543 62.1997C67.1943 62.1997 71.4674 57.9631 72.8241 56.2124C73.9208 57.8128 75.9112 59.6528 77.0404 60.644C77.6984 61.2248 78.6855 61.2207 79.3354 60.6358C80.0137 60.0387 81.4882 58.812 84.6768 56.3749C87.4348 54.2586 89.4333 54.088 90.7737 54.4942C90.1157 54.6283 89.348 54.8923 88.5884 55.3878C87.378 56.1758 86.659 56.8623 86.4397 57.435C85.6679 57.6991 84.9165 58.0809 84.1975 58.5764C81.5085 60.4246 79.9244 62.5612 78.5149 64.4581C78.1615 64.9333 77.804 65.4126 77.4303 65.8838C77.7025 65.1283 77.9178 64.3565 78.0681 63.5767C78.1087 63.3776 78.0681 63.1745 77.9543 63.0161C77.8447 62.8496 77.6741 62.7399 77.4791 62.7074C77.077 62.6343 76.6911 62.8943 76.6098 63.2923C76.4311 64.2266 76.1427 65.1649 75.7568 66.0747C75.3141 67.1065 74.7414 68.0976 74.059 69.0237L74.0752 69.0359ZM83.0114 69.174C83.6126 69.1862 84.1975 69.1049 84.7743 68.9303C83.312 70.6931 81.3257 71.7899 79.2135 71.9726C77.4832 72.127 75.8421 71.6639 74.323 70.5956C74.6682 70.4129 75.0054 70.2138 75.3222 70.0026C76.4108 70.3601 78.9048 70.8353 81.1957 68.8165C81.7847 69.0359 82.3899 69.1577 83.0033 69.174H83.0114ZM91.3627 64.3037C91.2449 63.1664 90.8834 62.2606 90.2944 61.6554C89.7176 61.0501 88.9174 60.7293 87.9832 60.7252C86.655 60.7252 85.5623 61.2004 84.5387 62.224C83.8441 62.9186 83.2308 63.8244 82.6946 64.6206C82.0731 65.5345 81.3704 66.5703 80.489 67.4517L80.428 67.5127C79.376 68.5484 78.1412 68.9993 76.7926 68.8328C77.9137 67.7848 78.8236 66.5581 79.7131 65.3558L79.7456 65.3111C81.1429 63.4386 82.589 61.5051 85.0546 59.8113C86.594 58.747 88.2594 58.3084 89.6283 58.6089C90.5666 58.808 91.3099 59.3563 91.8339 60.2296C92.695 61.6676 92.1345 63.1664 91.3546 64.3078L91.3627 64.3037Z" fill="#1E1E1E"/>
<path d="M77.6215 54.6486C77.4184 54.8476 77.3047 55.1157 77.3047 55.4041C77.3047 55.9931 77.7799 56.4724 78.373 56.4724C78.6614 56.4724 78.9294 56.3587 79.1204 56.1637C79.3235 55.9647 79.4372 55.6925 79.4372 55.4041C79.4372 55.1157 79.3235 54.8476 79.1285 54.6567C78.7304 54.2465 78.0074 54.2546 77.6215 54.6486Z" fill="#1E1E1E"/>
<path d="M82.7712 51.5088C82.3691 51.0985 81.6501 51.1067 81.2643 51.5007C81.0571 51.6997 80.9434 51.9718 80.9434 52.2602C80.9434 52.8452 81.4227 53.3285 82.0116 53.3285C82.3 53.3285 82.5681 53.2148 82.7631 53.0158C82.9662 52.8167 83.0799 52.5486 83.0799 52.2602C83.0799 51.9718 82.9662 51.6997 82.7712 51.5088Z" fill="#1E1E1E"/>
<path d="M56.692 46.48C56.4848 46.6791 56.3711 46.9512 56.3711 47.2355C56.3711 47.8245 56.8504 48.3038 57.4394 48.3038C57.7278 48.3038 57.9999 48.1901 58.1908 47.9951C58.3939 47.7961 58.5077 47.5239 58.5077 47.2355C58.5077 46.9472 58.3939 46.6791 58.199 46.4882C57.8009 46.0779 57.0738 46.086 56.692 46.48Z" fill="#1E1E1E"/>
<path d="M58.1946 52.6502C58.3977 52.4511 58.5114 52.1831 58.5114 51.8947C58.5114 51.6063 58.3977 51.3382 58.2027 51.1432C57.8046 50.737 57.0816 50.7411 56.6957 51.1432C56.4926 51.3382 56.3789 51.6103 56.3789 51.8987C56.3789 52.4836 56.8541 52.967 57.4431 52.967C57.7315 52.967 58.0037 52.8533 58.1946 52.6542V52.6502Z" fill="#1E1E1E"/>
<path d="M54.1633 50.3025C54.3664 50.1035 54.4802 49.8354 54.4802 49.547C54.4802 49.2586 54.3664 48.9864 54.1715 48.7955C53.7734 48.3853 53.0504 48.3934 52.6645 48.7874C52.4573 48.9864 52.3477 49.2586 52.3477 49.547C52.3477 50.1319 52.8229 50.6153 53.4119 50.6153C53.7003 50.6153 53.9724 50.5015 54.1633 50.3025Z" fill="#1E1E1E"/>
<path d="M54.1633 45.6474C54.3664 45.4484 54.4802 45.1803 54.4802 44.8919C54.4802 44.6035 54.3664 44.3314 54.1715 44.1404C53.7734 43.7342 53.0504 43.7383 52.6645 44.1323C52.4614 44.3314 52.3477 44.6035 52.3477 44.8919C52.3477 45.4768 52.8229 45.9602 53.4159 45.9602C53.7003 45.9602 53.9724 45.8464 54.1633 45.6474Z" fill="#1E1E1E"/>
<path d="M48.6293 46.48C48.4262 46.6791 48.3125 46.9472 48.3125 47.2355C48.3125 47.8245 48.7877 48.3038 49.3767 48.3038C49.6651 48.3038 49.9373 48.1901 50.1282 47.9951C50.3313 47.7961 50.445 47.5239 50.445 47.2355C50.445 46.9472 50.3313 46.6791 50.1363 46.4882C49.7382 46.0779 49.0152 46.086 48.6293 46.48Z" fill="#1E1E1E"/>
<path d="M48.6293 51.1391C48.4262 51.3381 48.3125 51.6062 48.3125 51.8946C48.3125 52.4836 48.7877 52.9629 49.3767 52.9629C49.6651 52.9629 49.9373 52.8492 50.1282 52.6501C50.3313 52.4551 50.445 52.183 50.445 51.8946C50.445 51.6062 50.3313 51.3381 50.1363 51.1472C49.7382 50.737 49.0152 50.7451 48.6293 51.1391Z" fill="#1E1E1E"/>
<path d="M52.6645 53.4462C52.4614 53.6453 52.3477 53.9133 52.3477 54.2017C52.3477 54.7907 52.8229 55.27 53.4159 55.27C53.7003 55.27 53.9724 55.1563 54.1633 54.9613C54.3664 54.7623 54.4802 54.4901 54.4802 54.2017C54.4802 53.9133 54.3664 53.6453 54.1715 53.4543C53.7734 53.0441 53.0504 53.0522 52.6645 53.4462Z" fill="#1E1E1E"/>
<path d="M83.7958 83.6873C83.3733 83.2649 82.8574 82.9237 82.2522 82.6678C82.8574 82.4119 83.3733 82.0707 83.7958 81.6483C84.8681 80.5759 85.1849 79.1096 85.2824 78.3297C85.323 78.0007 85.2174 77.6798 84.99 77.4523C84.7625 77.2248 84.4294 77.1152 84.1126 77.1598C83.3327 77.2573 81.8582 77.5823 80.794 78.6465C80.3716 79.0689 80.0304 79.5889 79.7745 80.1941C79.5145 79.5848 79.1774 79.073 78.7549 78.6465C77.6866 77.5782 76.2162 77.2573 75.4241 77.1598C75.1195 77.1233 74.7986 77.233 74.563 77.4685C74.3315 77.7041 74.2218 78.021 74.2624 78.3337C74.3599 79.1136 74.6849 80.5881 75.7491 81.6523C76.1675 82.0748 76.6833 82.4119 77.2967 82.6719C76.6874 82.9278 76.1715 83.269 75.7491 83.6914C74.6808 84.7597 74.3599 86.2301 74.2624 87.01C74.2218 87.339 74.3274 87.6639 74.5549 87.8874C74.7499 88.0823 75.0139 88.192 75.2901 88.192C75.3388 88.192 75.3835 88.192 75.4282 88.1798C76.2081 88.0864 77.6826 87.7614 78.7549 86.6932C79.1733 86.2707 79.5104 85.7549 79.7704 85.1496C80.0263 85.7549 80.3675 86.2707 80.7899 86.6932C81.8582 87.7614 83.3286 88.0823 84.1085 88.1798C84.4375 88.2245 84.7625 88.1148 84.9859 87.8874C85.2134 87.6639 85.319 87.339 85.2784 87.01C85.1809 86.2301 84.8559 84.7597 83.7917 83.6914L83.7958 83.6873ZM80.9646 81.1365C81.1027 80.7181 81.3058 80.2753 81.6186 79.8894C81.6795 79.8123 81.7445 79.7392 81.8135 79.6701C82.2603 79.2233 82.829 78.9552 83.3571 78.7968C83.4911 78.7562 83.6211 78.7196 83.747 78.6912C83.6739 79.008 83.5683 79.3614 83.4017 79.7026C83.353 79.8001 83.3002 79.8976 83.2433 79.9951C83.1133 80.2144 82.9549 80.4297 82.764 80.6165C82.5406 80.844 82.2847 81.0227 82.0166 81.1649C81.6226 81.3802 81.2043 81.5142 80.8346 81.5995C80.8671 81.4492 80.9118 81.2908 80.9646 81.1324V81.1365ZM76.7727 80.6206C76.6346 80.4825 76.5087 80.3322 76.4031 80.1738C76.3015 80.0235 76.2162 79.8651 76.139 79.7067C75.9766 79.3655 75.8669 79.0121 75.7978 78.6952C75.9116 78.7196 76.0253 78.7521 76.1472 78.7887C76.6833 78.9471 77.2683 79.2192 77.7272 79.6782C78.2878 80.2347 78.5681 80.9862 78.7062 81.6076C78.4746 81.5548 78.2228 81.4817 77.971 81.3842C77.5526 81.2177 77.1261 80.978 76.7727 80.6247V80.6206ZM77.7232 85.6614C77.1667 86.222 76.4193 86.5022 75.7978 86.6403C75.871 86.3113 75.9847 85.9498 76.1553 85.5964C76.3096 85.2796 76.5087 84.9709 76.7727 84.7069C77.1383 84.3413 77.5851 84.0976 78.0197 83.9351C78.2553 83.8457 78.4868 83.7808 78.7062 83.732C78.5681 84.3535 78.2837 85.1009 77.7232 85.6614ZM80.2538 84.2641C80.2538 84.2641 80.2619 84.3007 80.2619 84.321L79.7704 82.7247L79.2789 84.321C79.2789 84.321 79.287 84.2844 79.287 84.2641L79.5145 82.9237L78.1741 83.1512C78.1741 83.1512 78.1334 83.1593 78.1131 83.1634L79.7095 82.6719L78.1091 82.1804C78.1294 82.1804 78.1497 82.1885 78.17 82.1926L79.5104 82.42L79.283 81.0796C79.283 81.0796 79.2748 81.043 79.2748 81.0227L79.7663 82.619L80.2578 81.0227C80.2578 81.0227 80.2497 81.0593 80.2497 81.0796L80.0222 82.42L81.3627 82.1926C81.383 82.1926 81.4033 82.1844 81.4236 82.1804L79.8232 82.6719L81.4195 83.1634C81.4195 83.1634 81.383 83.1552 81.3627 83.1552L80.0182 82.9278L80.2456 84.2682L80.2538 84.2641ZM83.3855 86.5469C83.1174 86.4657 82.8371 86.3601 82.5691 86.2138C82.301 86.0717 82.041 85.8889 81.8176 85.6614C81.6592 85.503 81.5251 85.3283 81.4073 85.1456C81.1149 84.6866 80.9402 84.1788 80.8387 83.732C81.4602 83.8701 82.2075 84.1504 82.7681 84.7069C83.2027 85.1415 83.4667 85.6899 83.6292 86.2017C83.678 86.352 83.7186 86.4982 83.747 86.6403C83.6292 86.616 83.5074 86.5794 83.3855 86.5429V86.5469Z" fill="#1E1E1E"/>
<path d="M54.9832 83.6873C54.5608 83.2649 54.045 82.9237 53.4397 82.6678C54.045 82.4119 54.5608 82.0707 54.9832 81.6483C56.0556 80.5759 56.3724 79.1096 56.4699 78.3297C56.5105 78.0007 56.4049 77.6798 56.1775 77.4523C55.95 77.2248 55.6169 77.1152 55.3001 77.1598C54.5202 77.2573 53.0457 77.5823 51.9815 78.6465C51.5591 79.0689 51.2179 79.5889 50.962 80.1941C50.702 79.5848 50.3649 79.073 49.9424 78.6465C48.8741 77.5782 47.4037 77.2573 46.6116 77.1598C46.307 77.1233 45.9861 77.233 45.7505 77.4685C45.519 77.7041 45.4093 78.021 45.4499 78.3337C45.5474 79.1136 45.8724 80.5881 46.9366 81.6523C47.355 82.0748 47.8708 82.4119 48.4842 82.6719C47.8749 82.9278 47.359 83.269 46.9366 83.6914C45.8683 84.7597 45.5474 86.2301 45.4499 87.01C45.4093 87.339 45.5149 87.6639 45.7424 87.8874C45.9374 88.0823 46.2014 88.192 46.4776 88.192C46.5263 88.192 46.571 88.192 46.6157 88.1798C47.3956 88.0864 48.8701 87.7614 49.9424 86.6932C50.3608 86.2707 50.6979 85.7549 50.9579 85.1496C51.2138 85.7549 51.555 86.2707 51.9774 86.6932C53.0457 87.7614 54.5161 88.0823 55.296 88.1798C55.625 88.2245 55.95 88.1148 56.1734 87.8874C56.4009 87.6639 56.5065 87.339 56.4659 87.01C56.3684 86.2301 56.0434 84.7597 54.9792 83.6914L54.9832 83.6873ZM52.1521 81.1365C52.2902 80.7181 52.4933 80.2753 52.8061 79.8894C52.867 79.8123 52.932 79.7392 53.001 79.6701C53.4478 79.2233 54.0165 78.9552 54.5446 78.7968C54.6786 78.7562 54.8086 78.7196 54.9345 78.6912C54.8614 79.008 54.7558 79.3614 54.5892 79.7026C54.5405 79.8001 54.4877 79.8976 54.4308 79.9951C54.3008 80.2144 54.1424 80.4297 53.9515 80.6165C53.7281 80.844 53.4722 81.0227 53.2041 81.1649C52.8101 81.3802 52.3917 81.5142 52.0221 81.5995C52.0546 81.4492 52.0993 81.2908 52.1521 81.1324V81.1365ZM47.9602 80.6206C47.8221 80.4825 47.6962 80.3322 47.5906 80.1738C47.489 80.0235 47.4037 79.8651 47.3265 79.7067C47.1641 79.3655 47.0544 79.0121 46.9853 78.6952C47.0991 78.7196 47.2128 78.7521 47.3347 78.7887C47.8708 78.9471 48.4558 79.2192 48.9147 79.6782C49.4753 80.2347 49.7556 80.9862 49.8937 81.6076C49.6621 81.5548 49.4103 81.4817 49.1585 81.3842C48.736 81.2177 48.3136 80.978 47.9602 80.6247V80.6206ZM48.9107 85.6614C48.3542 86.222 47.6068 86.5022 46.9853 86.6403C47.0585 86.3113 47.1722 85.9498 47.3428 85.5964C47.4971 85.2796 47.6962 84.9709 47.9602 84.7069C48.3258 84.3413 48.7726 84.0976 49.2072 83.9351C49.4428 83.8457 49.6743 83.7808 49.8937 83.732C49.7556 84.3535 49.4712 85.1009 48.9107 85.6614ZM51.4413 84.2641C51.4413 84.2641 51.4494 84.3007 51.4494 84.321L50.9579 82.7247L50.4664 84.321C50.4664 84.321 50.4745 84.2844 50.4745 84.2641L50.702 82.9237L49.3616 83.1512C49.3616 83.1512 49.3209 83.1593 49.3006 83.1634L50.897 82.6719L49.2966 82.1804C49.3169 82.1804 49.3372 82.1885 49.3575 82.1926L50.6979 82.42L50.4705 81.0796C50.4705 81.0796 50.4623 81.043 50.4623 81.0227L50.9538 82.619L51.4453 81.0227C51.4453 81.0227 51.4372 81.0593 51.4372 81.0796L51.2097 82.42L52.5502 82.1926C52.5705 82.1926 52.5908 82.1844 52.6111 82.1804L51.0107 82.6719L52.607 83.1634C52.607 83.1634 52.5705 83.1552 52.5502 83.1552L51.2057 82.9278L51.4331 84.2682L51.4413 84.2641ZM54.573 86.5469C54.3049 86.4657 54.0246 86.3601 53.7566 86.2138C53.4885 86.0717 53.2285 85.8889 53.0051 85.6614C52.8467 85.503 52.7126 85.3283 52.5948 85.1456C52.3024 84.6866 52.1277 84.1788 52.0262 83.732C52.6476 83.8701 53.395 84.1504 53.9556 84.7069C54.3902 85.1415 54.6542 85.6899 54.8167 86.2017C54.8655 86.352 54.9061 86.4982 54.9345 86.6403C54.8167 86.616 54.6949 86.5794 54.573 86.5429V86.5469Z" fill="#1E1E1E"/>
</svg>
