<svg width="131" height="29" viewBox="0 0 131 29" fill="none" xmlns="http://www.w3.org/2000/svg">
<path d="M0 22.9321C0 19.1533 3.47472 17.9837 6.98668 16.8513C10.0829 15.8678 13.4087 14.9247 13.4087 11.45C13.4087 9.41165 12.1243 8.16448 10.2349 8.16448C7.7809 8.16448 6.41893 10.1655 5.62781 11.3383C4.94838 12.3217 4.26895 13.1129 2.98454 13.1129C1.70013 13.1129 1.05793 12.2442 1.0207 10.3176C3.66397 8.61743 6.95255 7.44781 10.0115 7.44781C14.7335 7.44781 17.9072 9.86461 17.9072 14.36V21.235C17.9072 24.294 18.0965 25.352 18.7759 27.4678H13.6011C13.3746 25.7304 13.2598 23.689 13.2598 21.7252C11.8234 26.2206 8.53789 28.11 5.63091 28.11C2.72394 28.11 0 26.1803 0 22.9321ZM8.12217 25.5009C10.4645 25.5009 13.2598 23.385 13.2598 18.3994V14.3942C12.5059 15.753 10.9547 16.2463 8.99085 17.0374C6.45926 18.2071 4.68467 19.3053 4.68467 21.7593C4.68467 24.2134 6.31035 25.4978 8.12217 25.4978V25.5009Z" fill="#C94D23"/>
<path d="M51.7851 13.0354C51.7851 11.0343 51.8596 9.63511 52.0861 8.04976H46.7592C46.9857 9.63511 47.0601 11.0343 47.0601 13.0354V22.5536C45.8502 24.6323 44.0011 25.9539 42.149 25.9539C40.1479 25.9539 39.0527 24.5175 39.0527 21.685V13.0354C39.0527 11.0343 39.1272 9.63511 39.3537 8.04976H21.524C25.7929 7.02906 26.9253 3.70636 26.9253 0.306091H22.1662C22.1662 5.55541 21.977 8.04976 18.617 8.04976H18.1641V8.91844H21.1486V21.9487C21.1486 25.7647 23.1869 28.107 26.5872 28.107C30.3659 28.107 32.6679 25.1224 33.3101 19.4946H32.7052C32.215 23.4999 30.8158 25.653 28.6627 25.653C26.9253 25.653 25.8674 24.0676 25.8674 21.4616V8.91844H34.0982C34.2378 10.1749 34.2905 11.4066 34.2905 13.0354V21.6477C34.2905 25.8019 36.3288 28.0698 39.6546 28.0698C42.5616 28.0698 45.3972 26.3324 47.057 23.7264C47.0198 25.0852 46.9453 26.2207 46.7561 27.4648H52.083C51.8565 25.8794 51.782 24.4802 51.782 22.4792V13.0354H51.7851Z" fill="#C94D23"/>
<path d="M72.2168 21.2972C72.3068 21.1048 72.3905 20.9094 72.4712 20.7077C72.375 20.8938 72.2882 21.0893 72.2168 21.2972Z" fill="#C94D23"/>
<path d="M89.8642 21.232V14.357C89.8642 9.86161 86.6905 7.44481 81.9686 7.44481C78.9096 7.44481 75.6241 8.61443 72.9777 10.3146C73.0149 12.2412 73.6944 13.1099 74.9415 13.1099C76.1887 13.1099 76.9054 12.3156 77.5848 11.3353C78.379 10.1656 79.7379 8.16148 82.1919 8.16148C84.0813 8.16148 85.3657 9.40865 85.3657 11.447C85.3657 14.9217 82.043 15.8648 78.9437 16.8483C76.7006 17.5712 74.4762 18.3126 73.1576 19.7336C72.8846 20.0252 72.6551 20.3478 72.4658 20.7046C72.3851 20.9063 72.3014 21.1017 72.2114 21.2941C70.9456 23.9746 68.6095 25.6468 65.9817 25.6468C62.1285 25.6468 58.8803 22.02 58.8803 15.9393C58.8803 10.9909 61.4491 8.15837 64.1296 8.15837C65.9817 8.15837 67.3034 9.32799 68.172 11.4066C68.625 12.5762 69.1927 13.5969 70.5888 13.5969C71.684 13.5969 72.4007 12.9175 72.6675 11.3694C70.5888 8.80058 67.4554 7.44171 64.2816 7.44171C58.0488 7.44171 53.8574 11.8627 53.8574 17.717C53.8574 23.2331 57.7479 28.0667 63.7914 28.0667C67.2444 28.0667 70.1762 26.2487 71.9663 23.2672C72.1432 26.3107 74.7058 28.1039 77.5848 28.1039C80.4639 28.1039 83.7804 26.2145 85.2137 21.7191C85.2137 23.6829 85.3285 25.7243 85.555 27.4617H90.7298C90.0504 25.3458 89.8611 24.2879 89.8611 21.2289L89.8642 21.232ZM85.2168 18.3995C85.2168 23.3851 82.4215 25.501 80.0792 25.501C78.2674 25.501 76.6417 24.2538 76.6417 21.7625C76.6417 19.2713 78.4163 18.2134 80.9479 17.0406C82.9117 16.2464 84.4598 15.7562 85.2168 14.3974V18.4026V18.3995Z" fill="#C94D23"/>
<path d="M105.955 22.4792V13.8296C105.955 10.9599 104.822 9.56068 102.818 9.56068C100.966 9.56068 99.0796 10.8823 97.8697 12.9982V22.4792C97.8697 24.4803 97.9441 25.8795 98.1706 27.4648H92.8438C93.0702 25.8795 93.1447 24.4803 93.1447 22.4792V13.0354C93.1447 11.0343 93.0702 9.63514 92.8438 8.0498H98.1706C97.9814 9.29698 97.9069 10.4294 97.8697 11.8658C99.5326 9.22252 102.402 7.44482 105.312 7.44482C108.635 7.44482 110.677 9.7127 110.677 13.8296V22.4792C110.677 24.4803 110.751 25.8795 110.977 27.4648H105.651C105.877 25.8795 105.952 24.4803 105.952 22.4792H105.955Z" fill="#C94D23"/>
<path d="M112.225 22.9321C112.225 19.1533 115.699 17.9837 119.211 16.8513C122.308 15.8678 125.633 14.9247 125.633 11.45C125.633 9.41165 124.349 8.16448 122.46 8.16448C120.006 8.16448 118.644 10.1655 117.852 11.3383C117.173 12.3217 116.494 13.1129 115.209 13.1129C113.925 13.1129 113.283 12.2442 113.245 10.3176C115.889 8.61743 119.177 7.44781 122.236 7.44781C126.958 7.44781 130.132 9.86461 130.132 14.36V21.235C130.132 24.294 130.321 25.352 131.001 27.4678H125.826C125.599 25.7304 125.484 23.689 125.484 21.7252C124.048 26.2206 120.762 28.11 117.856 28.11C114.949 28.11 112.228 26.1834 112.228 22.9352L112.225 22.9321ZM120.347 25.5009C122.689 25.5009 125.484 23.385 125.484 18.3994V14.3942C124.731 15.753 123.179 16.2463 121.215 17.0374C118.684 18.2071 116.909 19.3053 116.909 21.7593C116.909 24.2134 118.535 25.4978 120.347 25.4978V25.5009Z" fill="#C94D23"/>
</svg>
